<?xml version="1.0" standalone="no"?>
<!DOCTYPE svg PUBLIC "-//W3C//DTD SVG 20010904//EN"
 "http://www.w3.org/TR/2001/REC-SVG-20010904/DTD/svg10.dtd">
<svg version="1.0" xmlns="http://www.w3.org/2000/svg"
 width="845.000000pt" height="845.000000pt" viewBox="0 0 845.000000 845.000000"
 preserveAspectRatio="xMidYMid meet">
<metadata>
Created by potrace 1.11, written by Peter Selinger 2001-2013
</metadata>
<g transform="translate(0.000000,845.000000) scale(0.100000,-0.100000)"
fill="#000000" stroke="none">
<path d="M866 8180 c-5 -10 2 -2007 7 -2075 3 -38 8 -97 11 -130 4 -33 8 -83
11 -111 2 -29 6 -65 9 -80 30 -180 40 -230 57 -299 45 -175 130 -351 246 -505
l82 -110 -201 0 -201 0 7 -697 c4 -384 9 -743 11 -798 6 -149 25 -364 40 -455
2 -14 7 -47 10 -75 11 -95 45 -246 104 -460 19 -69 89 -268 118 -335 21 -48
129 -266 156 -315 24 -44 149 -235 172 -263 7 -9 44 -55 81 -102 85 -108 292
-312 414 -411 330 -264 695 -442 1136 -554 145 -37 333 -74 449 -89 88 -11
154 -18 305 -33 92 -9 588 -9 690 0 171 15 256 24 305 32 20 4 80 12 142 21
197 25 581 136 803 231 96 41 341 165 365 185 5 5 55 38 110 75 55 36 102 69
105 73 3 3 32 26 65 51 125 93 337 303 433 429 31 41 59 77 62 80 15 14 80
111 80 120 0 6 3 10 8 10 9 0 33 39 107 175 21 39 41 75 46 80 31 41 186 428
203 508 3 12 17 63 31 112 14 50 28 104 31 120 3 17 12 59 20 94 14 61 25 131
39 246 4 28 8 57 10 65 2 8 7 53 10 100 4 47 10 94 12 105 3 11 8 390 10 843
5 794 4 824 -14 828 -17 5 -18 59 -18 1662 l0 1657 -420 0 -420 0 0 -1450 0
-1450 -1085 -1 c-597 0 -1091 2 -1097 4 -10 3 -13 233 -13 1103 l0 1099 -420
0 -420 0 -2 -1102 -3 -1103 -565 0 c-597 0 -668 3 -795 36 -44 11 -84 21 -90
23 -19 4 -121 59 -160 86 -154 106 -274 312 -315 540 -7 36 -14 76 -17 90 -14
75 -18 304 -18 1170 l0 955 -418 0 c-231 0 -420 -2 -421 -5z m5871 -4607 c-3
-203 -8 -381 -10 -398 -3 -16 -8 -61 -11 -99 -4 -38 -9 -72 -11 -76 -2 -3 -6
-24 -9 -46 -10 -62 -13 -76 -31 -135 -9 -30 -19 -67 -21 -82 -6 -32 -78 -226
-100 -268 -8 -16 -15 -32 -15 -36 -3 -25 -117 -207 -192 -307 -75 -98 -225
-248 -325 -323 -43 -31 -79 -60 -82 -63 -15 -18 -196 -129 -293 -179 -240
-126 -513 -218 -787 -267 -107 -19 -101 -18 -190 -28 -36 -5 -78 -10 -95 -12
-158 -22 -497 -21 -655 0 -14 2 -48 6 -76 10 -260 29 -607 120 -810 212 -173
78 -392 204 -489 280 -16 14 -35 28 -40 32 -129 94 -369 342 -418 434 -7 13
-26 43 -42 68 -127 195 -246 543 -271 793 -3 29 -8 63 -10 77 -3 14 -8 195
-11 403 l-6 377 2503 0 2502 0 -5 -367z"/>
</g>
</svg>
